# xmcd CD database file
#
# Track frame offsets:
#	150
#	27564
#	60336
#	88767
#	114567
#	136708
#	161322
#	184903
#	212308
#	234794
#	260275
#	284148
#	309400
#
# Disc length: 4375 seconds
#
# Revision: 2
# Processed by: cddbd v1.5.1PL0 Copyright (c) Steve Scherf et al.
# Submitted via: CDex 1.51
#
DISCID=a811150d
DTITLE=中島 美嘉 - LOVE
DYEAR=2003
DGENRE=Japanese Pop
TTITLE0=Venus in the Dark
TTITLE1=Love Addict
TTITLE2=aroma
TTITLE3=雪の華
TTITLE4=RESISTANCE (album version)
TTITLE5=FIND THE WAY
TTITLE6=marionette
TTITLE7=接吻
TTITLE8=You send me love
TTITLE9=Be in Silence
TTITLE10=LOVE NO CRY
TTITLE11=愛してる (album version)
TTITLE12=LAST WALTZ
EXTD=YEAR: 2003
EXTT0=
EXTT1=
EXTT2=
EXTT3=
EXTT4=
EXTT5=
EXTT6=
EXTT7=
EXTT8=
EXTT9=
EXTT10=
EXTT11=
EXTT12=
PLAYORDER=
